<svg width="13" height="14" viewBox="0 0 13 14" fill="none" xmlns="http://www.w3.org/2000/svg">
<path d="M6.5 0C4.73606 0 4.51425 0.00875 3.82119 0.042C3.12812 0.077 2.65606 0.19425 2.2425 0.3675C1.8087 0.543217 1.41577 0.818848 1.09119 1.17513C0.760562 1.52486 0.50465 1.94796 0.34125 2.415C0.180375 2.8595 0.0706875 3.36875 0.039 4.1125C0.008125 4.86062 0 5.09863 0 7.00088C0 8.90137 0.008125 9.13938 0.039 9.88575C0.0715 10.6313 0.180375 11.1396 0.34125 11.585C0.507812 12.0452 0.729625 12.4355 1.09119 12.8249C1.45194 13.2142 1.81431 13.454 2.24169 13.6325C2.65606 13.8057 3.12731 13.9239 3.81956 13.958C4.51344 13.9913 4.73444 14 6.5 14C8.26556 14 8.48575 13.9913 9.17963 13.958C9.87106 13.923 10.3448 13.8057 10.7583 13.6325C11.1918 13.4567 11.5845 13.1811 11.9088 12.8249C12.2704 12.4355 12.4922 12.0452 12.6587 11.585C12.8188 11.1396 12.9285 10.6313 12.961 9.88575C12.9919 9.13938 13 8.90137 13 7C13 5.09862 12.9919 4.86063 12.961 4.11338C12.9285 3.36875 12.8188 2.8595 12.6587 2.415C12.4954 1.94795 12.2395 1.52484 11.9088 1.17513C11.5843 0.818716 11.1914 0.543065 10.7575 0.3675C10.3431 0.19425 9.87025 0.076125 9.17881 0.042C8.48494 0.00875 8.26475 0 6.49837 0H6.50081H6.5ZM5.91744 1.26175H6.50081C8.23631 1.26175 8.44187 1.26788 9.12681 1.302C9.76056 1.33263 10.1051 1.44725 10.3342 1.54262C10.6372 1.6695 10.8542 1.82175 11.0817 2.06675C11.3092 2.31175 11.4497 2.5445 11.5676 2.87175C11.6569 3.11762 11.7626 3.48863 11.791 4.17113C11.8227 4.90875 11.8292 5.13013 11.8292 6.99825C11.8292 8.86637 11.8227 9.08862 11.791 9.82625C11.7626 10.5087 11.6561 10.8789 11.5676 11.1256C11.4634 11.4296 11.297 11.7044 11.0809 11.9297C10.8534 12.1747 10.6372 12.3261 10.3334 12.453C10.1059 12.5493 9.76137 12.663 9.12681 12.6945C8.44187 12.7278 8.23631 12.7356 6.50081 12.7356C4.76531 12.7356 4.55894 12.7278 3.874 12.6945C3.24025 12.663 2.89656 12.5493 2.66744 12.453C2.38509 12.3409 2.12966 12.1621 1.91994 11.9297C1.70361 11.704 1.53702 11.429 1.43244 11.1248C1.34388 10.8789 1.23744 10.5079 1.209 9.82537C1.17813 9.08775 1.17163 8.86637 1.17163 6.9965C1.17163 5.1275 1.17813 4.907 1.209 4.16937C1.23825 3.48687 1.34388 3.11588 1.43325 2.86913C1.55106 2.54275 1.69244 2.30912 1.91994 2.06413C2.14744 1.81912 2.36356 1.66775 2.66744 1.54088C2.89656 1.44463 3.24025 1.33088 3.874 1.29938C4.47363 1.26963 4.706 1.26088 5.91744 1.26V1.26175ZM9.97019 2.42375C9.86776 2.42375 9.76633 2.44548 9.67169 2.48769C9.57706 2.52991 9.49107 2.59178 9.41864 2.66978C9.34621 2.74778 9.28876 2.84038 9.24956 2.9423C9.21036 3.04421 9.19019 3.15344 9.19019 3.26375C9.19019 3.37406 9.21036 3.48329 9.24956 3.5852C9.28876 3.68712 9.34621 3.77972 9.41864 3.85772C9.49107 3.93572 9.57706 3.99759 9.67169 4.03981C9.76633 4.08202 9.86776 4.10375 9.97019 4.10375C10.1771 4.10375 10.3755 4.01525 10.5217 3.85772C10.668 3.70019 10.7502 3.48653 10.7502 3.26375C10.7502 3.04097 10.668 2.82731 10.5217 2.66978C10.3755 2.51225 10.1771 2.42375 9.97019 2.42375ZM6.50081 3.4055C6.05806 3.39806 5.61835 3.48555 5.20729 3.66287C4.79624 3.8402 4.42204 4.10381 4.1065 4.43837C3.79095 4.77293 3.54036 5.17175 3.36931 5.6116C3.19826 6.05146 3.11017 6.52357 3.11017 7.00044C3.11017 7.47731 3.19826 7.94942 3.36931 8.38927C3.54036 8.82913 3.79095 9.22795 4.1065 9.5625C4.42204 9.89706 4.79624 10.1607 5.20729 10.338C5.61835 10.5153 6.05806 10.6028 6.50081 10.5954C7.37713 10.5807 8.21292 10.1954 8.82779 9.52284C9.44266 8.85026 9.78729 7.94428 9.78729 7.00044C9.78729 6.0566 9.44266 5.15061 8.82779 4.47803C8.21292 3.80545 7.37713 3.42022 6.50081 3.4055ZM6.50081 4.66638C7.07552 4.66638 7.62669 4.91224 8.03307 5.34988C8.43945 5.78752 8.66775 6.38108 8.66775 7C8.66775 7.61892 8.43945 8.21248 8.03307 8.65012C7.62669 9.08776 7.07552 9.33362 6.50081 9.33362C5.92611 9.33362 5.37494 9.08776 4.96856 8.65012C4.56218 8.21248 4.33388 7.61892 4.33388 7C4.33388 6.38108 4.56218 5.78752 4.96856 5.34988C5.37494 4.91224 5.92611 4.66638 6.50081 4.66638Z" fill="#625962"/>
</svg>
