<svg width="17" height="17" viewBox="0 0 17 17" fill="none" xmlns="http://www.w3.org/2000/svg">
<path d="M3.52963 5.09788C4.38558 5.09788 5.07946 4.40399 5.07946 3.54804C5.07946 2.69209 4.38558 1.99821 3.52963 1.99821C2.67368 1.99821 1.9798 2.69209 1.9798 3.54804C1.9798 4.40399 2.67368 5.09788 3.52963 5.09788Z" fill="#625962"/>
<path d="M6.54284 6.27229V14.8707H9.21255V10.6186C9.21255 9.49663 9.42364 8.41004 10.8148 8.41004C12.1868 8.41004 12.2038 9.69283 12.2038 10.6895V14.8715H14.875V10.1561C14.875 7.83983 14.3763 6.05979 11.6691 6.05979C10.3693 6.05979 9.49801 6.77308 9.14172 7.44813H9.10559V6.27229H6.54284ZM2.19226 6.27229H4.86622V14.8707H2.19226V6.27229Z" fill="#625962"/>
</svg>
